<?xml version="1.0" encoding="utf-8"?>
<!-- Generator: Adobe Illustrator 28.0.0, SVG Export Plug-In . SVG Version: 6.00 Build 0)  -->
<svg version="1.1" xmlns="http://www.w3.org/2000/svg" xmlns:xlink="http://www.w3.org/1999/xlink" x="0px" y="0px"
	 viewBox="0 0 512 512" style="enable-background:new 0 0 512 512;" xml:space="preserve">
<style type="text/css">
	.st0{display:none;}
	.st1{display:inline;}
	.st2{fill:#FFFFFF;}
</style>
<g id="Layer_1" class="st0">
	<path class="st1" d="M512,256C512,114.6,397.4,0,256,0S0,114.6,0,256c0,120,82.7,220.8,194.2,248.5V334.2h-52.8V256h52.8v-33.7
		c0-87.1,39.4-127.5,125-127.5c16.2,0,44.2,3.2,55.7,6.4V172c-6-0.6-16.5-1-29.6-1c-42,0-58.2,15.9-58.2,57.2V256h83.6l-14.4,78.2
		H287v175.9C413.8,494.8,512,386.9,512,256L512,256z"/>
</g>
<g id="Layer_1_copy">
	<path d="M141.4,334.2"/>
	<path d="M356.3,334.2"/>
</g>
<g id="Layer_4">
	<g>
		<path d="M225.4,223.5c-3.3,7.4-5.6,15.3-8.4,23c-0.6,0.1-1.2,0.2-1.8,0.2c-2.8-8-5.2-16.1-8.6-23.8c-1.2-2.6-4.8-4.1-7.4-6.1
			c-0.8,3.1-2.9,6.7-2.1,9.3c3.1,9.7,7.3,19,11,28.5c3.4,8.8,0.9,12.7-8.5,14.4c-1.8,0.3-3.3,2.3-4.9,3.5c1.6,1.6,3,4.1,4.9,4.6
			c8.4,2.2,15.5-1.1,18.8-9c5.7-13.9,11.1-27.9,16-42c0.9-2.5-1.3-6.1-2-9.2C230,219.1,226.6,220.8,225.4,223.5z"/>
		<path d="M179.5,218c-9.3-4.1-20.6-0.6-25.8,7.2c-5.4,8-4.6,22.7,1.6,29.6c6.2,6.8,19.9,9.2,28.3,3.8c3.2-2,7.5-8.5,6.6-9.9
			c-3.8-5.9-6.6,1-10.1,2c-4.1,1.2-8.9,2.7-12.6,1.5c-2.9-1-4.5-5.8-7.9-10.7c9.1,0,15.3,0.1,21.5,0c10.3-0.2,13.8-6,8.3-14.9
			C187.2,223,183.4,219.7,179.5,218z M162.2,234.6c0-6.6,2.8-10.3,9-10.4c6.2,0,8.8,3.9,9.7,10.4
			C174.3,234.6,168.4,234.6,162.2,234.6z"/>
		<path d="M512,256c0-0.2,0-0.4,0-0.6c0-1.8,0-3.6-0.1-5.4c0-0.9-0.1-1.8-0.1-2.8c0-1.1-0.1-2.1-0.1-3.2c-0.1-1.1-0.1-2.2-0.2-3.3
			c0-0.8-0.1-1.7-0.2-2.5c-0.1-1.3-0.2-2.5-0.3-3.7c0-0.6-0.1-1.2-0.2-1.8c-0.1-1.4-0.3-2.9-0.4-4.3c0-0.1,0-0.2,0-0.3
			C496.6,99.8,388,0,256,0C131,0,26.9,89.6,4.5,208.1c0,0,0,0.1,0,0.1c-0.3,1.8-0.7,3.6-1,5.4c0,0.2-0.1,0.4-0.1,0.7
			c-0.3,1.7-0.5,3.4-0.8,5.1c-0.1,0.4-0.1,0.7-0.2,1.1c-0.2,1.6-0.4,3.2-0.6,4.8c-0.1,0.5-0.1,1-0.2,1.4c-0.2,1.5-0.3,3-0.5,4.5
			c-0.1,0.6-0.1,1.2-0.2,1.8c-0.1,1.4-0.3,2.9-0.4,4.3c-0.1,0.7-0.1,1.4-0.1,2.1c-0.1,1.3-0.2,2.7-0.2,4c0,0.9-0.1,1.8-0.1,2.7
			c0,1.2-0.1,2.3-0.1,3.5c0,1.7-0.1,3.3-0.1,5c0,0.4,0,0.8,0,1.2c0,0,0,0,0,0.1c0,0,0,0,0,0c0,0.2,0,0.4,0,0.6c0,1.8,0,3.6,0.1,5.4
			c0,0.9,0.1,1.8,0.1,2.8c0,1.1,0.1,2.1,0.1,3.2c0.1,1.1,0.1,2.2,0.2,3.3c0,0.8,0.1,1.7,0.2,2.5c0.1,1.3,0.2,2.5,0.3,3.7
			c0,0.6,0.1,1.2,0.2,1.8c0.1,1.4,0.3,2.9,0.4,4.3c0,0.1,0,0.2,0,0.3C15.4,412.3,124,512.1,256,512.1c68.6,0,130.9-27,176.9-71
			C383.6,441,334.3,441,285,441c-1.1,0-2.2-0.3-4.8-0.6c0-4,0-7.3,0-10.7c-0.1-43.8-0.2-87.5-0.4-131.3
			c-0.1-44.4,32.7-82.6,75.2-87.5c44.1-5.1,84.3,22.7,94.5,65.8c1.6,6.6,2.5,13.5,2.5,20.2c0.1,41.3-0.1,82.6-0.1,123.8
			c27.7-32.9,47.2-72.9,55.5-116.8c0,0,0-0.1,0-0.1c0.3-1.8,0.7-3.6,1-5.4c0-0.2,0.1-0.4,0.1-0.7c0.3-1.7,0.5-3.4,0.8-5.1
			c0.1-0.4,0.1-0.7,0.2-1.1c0.2-1.6,0.4-3.2,0.6-4.8c0.1-0.5,0.1-1,0.2-1.4c0.2-1.5,0.3-3,0.5-4.5c0.1-0.6,0.1-1.2,0.2-1.8
			c0.1-1.4,0.3-2.9,0.4-4.3c0.1-0.7,0.1-1.4,0.1-2.1c0.1-1.3,0.2-2.7,0.2-4c0-0.9,0.1-1.8,0.1-2.7c0-1.2,0.1-2.3,0.1-3.5
			c0-1.7,0.1-3.3,0.1-5C512,256.9,512,256.5,512,256C512,256.1,512,256.1,512,256C512,256,512,256,512,256z M268.4,240.3
			c-2.4,44.6-36.3,80-80.9,83.4c-20.2,1.5-41.2,1.4-60.9-2.7c-44.1-9.2-70.7-49.4-65.4-94.1c3.6-30.5,30.9-60.5,63.3-68.8
			c8.2-2.1,16.8-3.5,25.2-3.6c37.8-0.4,75.6-0.2,113.4-0.2c1.4,0,2.8,0.2,5.1,0.4c0.4,1.9,0.9,3.3,0.9,4.7
			C268.9,186.4,269.8,213.4,268.4,240.3z M365.5,196.6c-33.5,0-61.6-28.4-61.8-62.3c-0.1-33.9,27.8-62,61.7-62.1
			c35.2-0.1,63,27.5,63,62.5C428.4,168.6,400,196.7,365.5,196.6z"/>
		<path d="M121.6,217.3c-2.7,0.8-5.2,2-9.1,3.6c0-5.1,0.7-9.5-0.2-13.6c-0.6-2.6-3.6-4.6-5.5-6.9c-1.7,2.2-4.8,4.3-4.9,6.5
			c-0.4,15.6-0.4,31.2,0,46.8c0.1,2.4,3.4,4.7,5.2,7.1c1.8-2.6,4.8-5.1,5.3-7.9c0.9-5.8,0.2-11.9,0.6-17.8c0.4-5.7,3.3-9.9,9.6-9.8
			c6.7,0.1,7.2,5.3,7.3,10.3c0.1,6.2-0.4,12.5,0.4,18.7c0.3,2.3,3.2,4.4,4.8,6.6c1.9-2,5.4-3.9,5.5-6c0.6-8.7,0.9-17.6-0.1-26.3
			C139.2,218.6,131.4,214.4,121.6,217.3z"/>
	</g>
</g>
<g id="Layer_2" class="st0">
	
		<image style="display:inline;overflow:visible;" width="84" height="76" xlink:href="Screen Shot 2024-06-19 at 6.02.11 p.m..png"  transform="matrix(9.7733 0 0 9.7733 -154.4803 -133.494)">
	</image>
</g>
<g id="Layer_3" class="st0">
	<g class="st1">
		<path d="M0-0.9c170.7,0,341.3,0,512,0c0,170.7,0,341.3,0,512c-170.7,0-341.3,0-512,0C0,340.4,0,169.7,0-0.9z M280.3,440.4
			c2.5,0.3,3.6,0.6,4.8,0.6c53.4,0,106.8-0.1,160.3,0.2c6.3,0,6.7-3,6.7-7.9c0-45.5,0.2-90.9,0.1-136.4c0-6.8-0.9-13.7-2.5-20.2
			c-10.2-43.1-50.4-70.9-94.5-65.8c-42.6,5-75.4,43.2-75.2,87.5c0.1,43.8,0.3,87.5,0.4,131.3C280.3,433,280.3,436.4,280.3,440.4z
			 M268.2,154.7c-2.3-0.2-3.7-0.4-5.1-0.4c-37.8,0-75.6-0.2-113.4,0.2c-8.4,0.1-17,1.5-25.2,3.6c-32.4,8.3-59.7,38.3-63.3,68.8
			c-5.3,44.6,21.3,84.8,65.4,94.1c19.7,4.1,40.7,4.3,60.9,2.7c44.6-3.4,78.5-38.8,80.9-83.4c1.4-26.9,0.6-54,0.7-80.9
			C269,158,268.5,156.7,268.2,154.7z M303.7,134.3c0.1,33.9,28.2,62.3,61.8,62.3c34.5,0,62.9-28,62.9-62c0-35-27.9-62.6-63-62.5
			C331.5,72.3,303.6,100.4,303.7,134.3z"/>
		<path class="st2" d="M280.3,440.4c0-4,0-7.3,0-10.7c-0.1-43.8-0.2-87.5-0.4-131.3c-0.1-44.4,32.7-82.6,75.2-87.5
			c44.1-5.1,84.3,22.7,94.5,65.8c1.6,6.6,2.5,13.5,2.5,20.2c0.1,45.5-0.1,90.9-0.1,136.4c0,4.9-0.5,7.9-6.7,7.9
			c-53.4-0.2-106.8-0.1-160.3-0.2C283.9,441,282.8,440.7,280.3,440.4z"/>
		<path class="st2" d="M268.2,154.7c0.4,1.9,0.9,3.3,0.9,4.7c-0.1,27,0.7,54-0.7,80.9c-2.4,44.6-36.3,80-80.9,83.4
			c-20.2,1.5-41.2,1.4-60.9-2.7c-44.1-9.2-70.7-49.4-65.4-94.1c3.6-30.5,30.9-60.5,63.3-68.8c8.2-2.1,16.8-3.5,25.2-3.6
			c37.8-0.4,75.6-0.2,113.4-0.2C264.5,154.3,265.9,154.5,268.2,154.7z M112.5,220.9c0-5.1,0.7-9.5-0.2-13.6
			c-0.6-2.6-3.6-4.6-5.5-6.9c-1.7,2.2-4.8,4.3-4.9,6.5c-0.4,15.6-0.4,31.2,0,46.8c0.1,2.4,3.4,4.7,5.2,7.1c1.8-2.6,4.8-5.1,5.3-7.9
			c0.9-5.8,0.2-11.9,0.6-17.8c0.4-5.7,3.3-9.9,9.6-9.8c6.7,0.1,7.2,5.3,7.3,10.3c0.1,6.2-0.4,12.5,0.4,18.7c0.3,2.3,3.2,4.4,4.8,6.6
			c1.9-2,5.4-3.9,5.5-6c0.6-8.7,0.9-17.6-0.1-26.3c-1.2-10-9-14.2-18.8-11.3C119,218,116.5,219.3,112.5,220.9z M159.7,241.5
			c9.1,0,15.3,0.1,21.5,0c10.3-0.2,13.8-6,8.3-14.9c-2.2-3.6-6.1-6.9-10-8.6c-9.3-4.1-20.6-0.6-25.8,7.2c-5.4,8-4.6,22.7,1.6,29.6
			c6.2,6.8,19.9,9.2,28.3,3.8c3.2-2,7.5-8.5,6.6-9.9c-3.8-5.9-6.6,1-10.1,2c-4.1,1.2-8.9,2.7-12.6,1.5
			C164.7,251.2,163.1,246.4,159.7,241.5z M217,246.5c-0.6,0.1-1.2,0.2-1.8,0.2c-2.8-8-5.2-16.1-8.6-23.8c-1.2-2.6-4.8-4.1-7.4-6.1
			c-0.8,3.1-2.9,6.7-2.1,9.3c3.1,9.7,7.3,19,11,28.5c3.4,8.8,0.9,12.7-8.5,14.4c-1.8,0.3-3.3,2.3-4.9,3.5c1.6,1.6,3,4.1,4.9,4.6
			c8.4,2.2,15.5-1.1,18.8-9c5.7-13.9,11.1-27.9,16-42c0.9-2.5-1.3-6.1-2-9.2c-2.4,2.2-5.9,3.9-7.1,6.6
			C222.1,231,219.7,238.8,217,246.5z"/>
		<path class="st2" d="M303.7,134.3c-0.1-33.9,27.8-62,61.7-62.1c35.2-0.1,63,27.5,63,62.5c0,34-28.5,62.1-62.9,62
			C332,196.6,303.9,168.2,303.7,134.3z"/>
		<path d="M112.5,220.9c4-1.6,6.5-2.8,9.1-3.6c9.8-2.9,17.6,1.4,18.8,11.3c1,8.7,0.7,17.6,0.1,26.3c-0.1,2.1-3.6,4-5.5,6
			c-1.7-2.2-4.6-4.2-4.8-6.6c-0.7-6.2-0.2-12.5-0.4-18.7c-0.1-5.1-0.6-10.2-7.3-10.3c-6.3-0.1-9.1,4.1-9.6,9.8
			c-0.4,5.9,0.3,12-0.6,17.8c-0.4,2.8-3.4,5.3-5.3,7.9c-1.8-2.4-5.1-4.7-5.2-7.1c-0.5-15.6-0.5-31.2,0-46.8c0.1-2.2,3.2-4.4,4.9-6.5
			c1.9,2.3,4.9,4.3,5.5,6.9C113.2,211.3,112.5,215.7,112.5,220.9z"/>
		<path d="M159.7,241.5c3.4,4.9,5,9.7,7.9,10.7c3.7,1.2,8.5-0.3,12.6-1.5c3.5-1,6.3-7.9,10.1-2c0.9,1.4-3.4,7.8-6.6,9.9
			c-8.4,5.3-22.1,3-28.3-3.8c-6.2-6.9-7-21.6-1.6-29.6c5.3-7.7,16.5-11.3,25.8-7.2c3.9,1.7,7.7,5,10,8.6c5.5,8.9,2.1,14.7-8.3,14.9
			C175,241.6,168.7,241.5,159.7,241.5z M180.9,234.6c-0.9-6.5-3.5-10.4-9.7-10.4c-6.2,0-8.9,3.8-9,10.4
			C168.4,234.6,174.3,234.6,180.9,234.6z"/>
		<path d="M217,246.5c2.7-7.7,5.1-15.6,8.4-23c1.2-2.7,4.7-4.4,7.1-6.6c0.7,3.1,2.9,6.7,2,9.2c-4.9,14.2-10.4,28.2-16,42
			c-3.2,7.9-10.4,11.2-18.8,9c-1.9-0.5-3.3-3-4.9-4.6c1.6-1.2,3.1-3.1,4.9-3.5c9.4-1.7,11.9-5.7,8.5-14.4c-3.7-9.5-7.9-18.8-11-28.5
			c-0.8-2.6,1.3-6.2,2.1-9.3c2.5,2,6.2,3.5,7.4,6.1c3.4,7.7,5.8,15.8,8.6,23.8C215.8,246.7,216.4,246.6,217,246.5z"/>
		<path class="st2" d="M180.9,234.6c-6.5,0-12.5,0-18.7,0c0-6.6,2.8-10.3,9-10.4C177.4,224.2,180,228.1,180.9,234.6z"/>
	</g>
</g>
</svg>
