<?xml version="1.0" encoding="UTF-8"?>
<svg id="Ebene_1" xmlns="http://www.w3.org/2000/svg" version="1.1" viewBox="0 0 720 720">
  <!-- Generator: Adobe Illustrator 29.6.1, SVG Export Plug-In . SVG Version: 2.1.1 Build 9)  -->
  <defs>
    <style>
      .st0 {
        fill-rule: evenodd;
      }

      .st0, .st1 {
        fill: #fff;
      }
    </style>
  </defs>
  <rect class="st1" x="402.8" y="425" width="302.2" height="259.9"/>
  <circle class="st1" cx="553.9" cy="429.9" r="151.1" vector-effect="non-scaling-stroke"/>
  <circle class="st1" cx="553.9" cy="144.8" r="109.7" vector-effect="non-scaling-stroke"/>
  <path class="st0" d="M174.2,180.3h208.8v140.6c0,87.8-71.3,159.2-159.2,159.2h-49.7c-87.8-.1-159.1-67.2-159.1-149.9h0c0-82.8,71.3-149.9,159.2-149.9ZM107.5,272.3h0v28.9h0c2.5-2.9,4.9-5.1,7.2-6.8h0c2.4-1.7,5-2.9,7.8-3.7h0c2.9-.8,5.9-1.3,9.2-1.3h0c5,0,9.3,1,13.2,3.1h0c3.8,2.1,6.8,5.1,9,9.1h0c1.4,2.3,2.3,4.9,2.8,7.8h0c.5,2.9.7,6.2.7,10h0v37.3h0c0,3.9-.9,6.9-2.7,8.9h0c-1.8,2-4.2,3-7.1,3h0c-6.4,0-9.6-4-9.6-11.9h0v-32.9h0c0-6.2-.9-11-2.8-14.4h0c-1.9-3.4-5.4-5-10.6-5h0c-3.5,0-6.6,1-9.4,3h0c-2.8,2-4.9,4.7-6.2,8.1h0c-1,2.9-1.6,8.1-1.6,15.5h0v25.8h0c0,3.9-.9,6.8-2.6,8.8h0c-1.7,2-4.2,3-7.2,3h0c-6.4,0-9.6-4-9.6-11.9h0v-84.5h0c0-4,.8-6.9,2.5-8.9h0c1.7-2,4.1-3,7.1-3h0c3.1,0,5.5,1,7.2,3h0c1.8,2.1,2.7,5.1,2.7,9h0ZM193,322.7h35.3c-.5-6.7-2.3-11.7-5.4-15h0c-3.1-3.3-7.2-5-12.3-5h0c-4.9,0-8.8,1.7-12,5h0c-3,3.5-4.9,8.5-5.6,15h0ZM277.8,371.1h0l1.8-4.4-24-60.4h0c-1.5-3.5-2.2-6-2.2-7.6h0c0-1.7.4-3.2,1.3-4.6h0c.9-1.4,2-2.6,3.5-3.4h0c1.5-.9,3.1-1.3,4.7-1.3h0c2.8,0,4.9.9,6.4,2.7h0c1.4,1.8,2.7,4.3,3.8,7.7h0l16.5,48,15.6-44.6h0c1.2-3.6,2.4-6.4,3.4-8.5h0c1-2,2.1-3.4,3.2-4.1h0c1.1-.7,2.7-1.1,4.7-1.1h0c1.5,0,2.9.4,4.2,1.2h0c1.4.8,2.4,1.8,3.1,3.2h0c.7,1.3,1.1,2.7,1.1,4.2h0c-.2.9-.5,2.2-.9,3.9h0c-.4,1.7-1,3.4-1.6,5.1h0l-25.4,66.3h0c-2.2,5.9-4.3,10.4-6.4,13.8h0c-2.1,3.3-4.9,5.9-8.3,7.7h0c-3.5,1.8-8.1,2.7-14,2.7h0c-5.7,0-10-.6-12.8-1.9h0c-2.9-1.2-4.3-3.5-4.3-6.8h0c0-2.2.7-4,2-5.2h0c1.4-1.2,3.4-1.8,6-1.8h0c1,0,2.1.1,3.1.4h0c1.2.3,2.3.4,3.2.4h0c2.2,0,4-.3,5.3-1h0c1.3-.7,2.4-1.8,3.5-3.5h0c1-1.5,2.2-3.9,3.5-7.1h0ZM231.1,333.8h-38.1c0,4.4.9,8.3,2.7,11.7h0c1.7,3.4,4,5.9,6.9,7.6h0c2.9,1.7,6.1,2.6,9.5,2.6h0c2.3,0,4.5-.3,6.4-.8h0c1.9-.5,3.8-1.4,5.6-2.6h0c1.8-1.2,3.5-2.4,5-3.7h0c1.5-1.3,3.5-3.1,5.9-5.4h0c1-.9,2.4-1.3,4.3-1.3h0c2,0,3.6.5,4.9,1.6h0c1.2,1.1,1.9,2.6,1.9,4.6h0c0,1.8-.7,3.8-2.1,6.2h0c-1.4,2.4-3.5,4.6-6.2,6.8h0c-2.8,2.2-6.3,4-10.5,5.4h0c-4.2,1.4-9.1,2.1-14.5,2.1h0c-12.5,0-22.3-3.6-29.2-10.7h0c-6.9-7.1-10.4-16.8-10.4-29.1h0c0-5.8.9-11.1,2.6-16h0c1.7-4.9,4.2-9.1,7.5-12.7h0c3.3-3.5,7.3-6.2,12.1-8.1h0c4.8-1.9,10.1-2.8,16-2.8h0c7.6,0,14.1,1.6,19.6,4.8h0c5.4,3.2,9.5,7.4,12.2,12.5h0c2.7,5.1,4.1,10.3,4.1,15.6h0c0,4.9-1.4,8.1-4.2,9.5h0c-2.9,1.5-6.9,2.2-12,2.2h0Z"/>
</svg>